<svg width="24" height="25" viewBox="0 0 24 25" fill="none" xmlns="http://www.w3.org/2000/svg">
<path d="M18 3.36072C17.2044 3.36072 16.4413 3.67679 15.8787 4.2394C15.3161 4.80201 15 5.56507 15 6.36072V18.3607C15 19.1564 15.3161 19.9194 15.8787 20.482C16.4413 21.0446 17.2044 21.3607 18 21.3607C18.7956 21.3607 19.5587 21.0446 20.1213 20.482C20.6839 19.9194 21 19.1564 21 18.3607C21 17.5651 20.6839 16.802 20.1213 16.2394C19.5587 15.6768 18.7956 15.3607 18 15.3607H6C5.20435 15.3607 4.44129 15.6768 3.87868 16.2394C3.31607 16.802 3 17.5651 3 18.3607C3 19.1564 3.31607 19.9194 3.87868 20.482C4.44129 21.0446 5.20435 21.3607 6 21.3607C6.79565 21.3607 7.55871 21.0446 8.12132 20.482C8.68393 19.9194 9 19.1564 9 18.3607V6.36072C9 5.56507 8.68393 4.80201 8.12132 4.2394C7.55871 3.67679 6.79565 3.36072 6 3.36072C5.20435 3.36072 4.44129 3.67679 3.87868 4.2394C3.31607 4.80201 3 5.56507 3 6.36072C3 7.15637 3.31607 7.91943 3.87868 8.48204C4.44129 9.04465 5.20435 9.36072 6 9.36072H18C18.7956 9.36072 19.5587 9.04465 20.1213 8.48204C20.6839 7.91943 21 7.15637 21 6.36072C21 5.56507 20.6839 4.80201 20.1213 4.2394C19.5587 3.67679 18.7956 3.36072 18 3.36072Z" stroke="white" stroke-width="2" stroke-linecap="round" stroke-linejoin="round"/>
</svg>
