<svg width="25" height="24" viewBox="0 0 25 24" fill="none" xmlns="http://www.w3.org/2000/svg">
<path d="M12.5 16C14.7091 16 16.5 14.2091 16.5 12C16.5 9.79086 14.7091 8 12.5 8C10.2909 8 8.5 9.79086 8.5 12C8.5 14.2091 10.2909 16 12.5 16Z" stroke="#252525" stroke-width="2" stroke-linecap="round" stroke-linejoin="round"/>
<path d="M16.5 7.99999V13C16.5 13.7956 16.8161 14.5587 17.3787 15.1213C17.9413 15.6839 18.7043 16 19.5 16C20.2956 16 21.0587 15.6839 21.6213 15.1213C22.1839 14.5587 22.5 13.7956 22.5 13V12C22.4999 9.74302 21.7362 7.55247 20.3333 5.78452C18.9303 4.01658 16.9705 2.77521 14.7726 2.26229C12.5747 1.74936 10.2679 1.99503 8.22734 2.95936C6.18676 3.92368 4.53239 5.54995 3.53325 7.57371C2.53411 9.59748 2.24896 11.8997 2.72416 14.1061C3.19936 16.3125 4.40697 18.2932 6.15062 19.7263C7.89428 21.1593 10.0714 21.9603 12.3281 21.9991C14.5847 22.0379 16.7881 21.3122 18.58 19.94" stroke="#252525" stroke-width="2" stroke-linecap="round" stroke-linejoin="round"/>
</svg>
