<svg width="18" height="19" viewBox="0 0 18 19" fill="none" xmlns="http://www.w3.org/2000/svg">
<path d="M9 17C13.1421 17 16.5 13.6421 16.5 9.5C16.5 5.35786 13.1421 2 9 2C4.85786 2 1.5 5.35786 1.5 9.5C1.5 13.6421 4.85786 17 9 17Z" stroke="white" stroke-width="2" stroke-linecap="round" stroke-linejoin="round"/>
<path d="M6.8175 7.25C6.99383 6.74875 7.34187 6.32608 7.79997 6.05685C8.25807 5.78762 8.79668 5.6892 9.32039 5.77903C9.8441 5.86886 10.3191 6.14114 10.6613 6.54765C11.0035 6.95415 11.1908 7.46864 11.19 8C11.19 9.5 8.94 10.25 8.94 10.25" stroke="white" stroke-width="2" stroke-linecap="round" stroke-linejoin="round"/>
<path d="M9 13.25H9.0075" stroke="white" stroke-width="2" stroke-linecap="round" stroke-linejoin="round"/>
</svg>
